<?xml version="1.0" encoding="UTF-8"?><svg xmlns="http://www.w3.org/2000/svg" viewBox="0 0 10 10" width="600" height="600"><rect x="1" y="1" width="8" height="8" style="fill:#009000;"/><text x="0.4" y="1.6" style="font-family:Verdana;font-size:0.5px">1</text><text x="0.4" y="2.6" style="font-family:Verdana;font-size:0.5px">2</text><text x="0.4" y="3.6" style="font-family:Verdana;font-size:0.5px">3</text><text x="0.4" y="4.6" style="font-family:Verdana;font-size:0.5px">4</text><text x="0.4" y="5.6" style="font-family:Verdana;font-size:0.5px">5</text><text x="0.4" y="6.6" style="font-family:Verdana;font-size:0.5px">6</text><text x="0.4" y="7.6" style="font-family:Verdana;font-size:0.5px">7</text><text x="0.4" y="8.6" style="font-family:Verdana;font-size:0.5px">8</text><text x="1.3" y="0.8" style="font-family:Verdana;font-size:0.5px">A</text><text x="2.3" y="0.8" style="font-family:Verdana;font-size:0.5px">B</text><text x="3.3" y="0.8" style="font-family:Verdana;font-size:0.5px">C</text><text x="4.3" y="0.8" style="font-family:Verdana;font-size:0.5px">D</text><text x="5.3" y="0.8" style="font-family:Verdana;font-size:0.5px">E</text><text x="6.3" y="0.8" style="font-family:Verdana;font-size:0.5px">F</text><text x="7.3" y="0.8" style="font-family:Verdana;font-size:0.5px">G</text><text x="8.3" y="0.8" style="font-family:Verdana;font-size:0.5px">H</text><line x1="1" y1="1.025" x2="9" y2="1.025" style="stroke:black;stroke-width:0.05" /><line x1="1" y1="2" x2="9" y2="2" style="stroke:black;stroke-width:0.05" /><line x1="1" y1="3" x2="9" y2="3" style="stroke:black;stroke-width:0.05" /><line x1="1" y1="4" x2="9" y2="4" style="stroke:black;stroke-width:0.05" /><line x1="1" y1="5" x2="9" y2="5" style="stroke:black;stroke-width:0.05" /><line x1="1" y1="6" x2="9" y2="6" style="stroke:black;stroke-width:0.05" /><line x1="1" y1="7" x2="9" y2="7" style="stroke:black;stroke-width:0.05" /><line x1="1" y1="8" x2="9" y2="8" style="stroke:black;stroke-width:0.05" /><line x1="1" y1="9" x2="9" y2="9" style="stroke:black;stroke-width:0.05" /><line x1="1" y1="1" x2="1" y2="9" style="stroke:black;stroke-width:0.05" /><line x1="2" y1="1" x2="2" y2="9" style="stroke:black;stroke-width:0.05" /><line x1="3" y1="1" x2="3" y2="9" style="stroke:black;stroke-width:0.05" /><line x1="4" y1="1" x2="4" y2="9" style="stroke:black;stroke-width:0.05" /><line x1="5" y1="1" x2="5" y2="9" style="stroke:black;stroke-width:0.05" /><line x1="6" y1="1" x2="6" y2="9" style="stroke:black;stroke-width:0.05" /><line x1="7" y1="1" x2="7" y2="9" style="stroke:black;stroke-width:0.05" /><line x1="8" y1="1" x2="8" y2="9" style="stroke:black;stroke-width:0.05" /><line x1="8.975" y1="1" x2="8.975" y2="9" style="stroke:black;stroke-width:0.05" /><circle cx="1.5" cy="1.5" r="0.4" style="fill:white" /><circle cx="2.5" cy="1.5" r="0.4" style="fill:white" /><circle cx="3.5" cy="1.5" r="0.4" style="fill:white" /><circle cx="4.5" cy="1.5" r="0.4" style="fill:white" /><circle cx="5.5" cy="1.5" r="0.4" style="fill:white" /><circle cx="6.5" cy="1.5" r="0.4" style="fill:white" /><circle cx="7.5" cy="1.5" r="0.4" style="fill:white" /><circle cx="8.5" cy="1.5" r="0.4" style="fill:white" /><circle cx="1.5" cy="2.5" r="0.4" style="fill:white" /><circle cx="2.5" cy="2.5" r="0.4" style="fill:white" /><circle cx="3.5" cy="2.5" r="0.4" style="fill:white" /><circle cx="4.5" cy="2.5" r="0.4" style="fill:white" /><circle cx="5.5" cy="2.5" r="0.4" style="fill:white" /><circle cx="6.5" cy="2.5" r="0.4" style="fill:white" /><circle cx="7.5" cy="2.5" r="0.4" style="fill:white" /><circle cx="8.5" cy="2.5" r="0.4" style="fill:white" /><circle cx="1.5" cy="3.5" r="0.4" style="fill:white" /><circle cx="2.5" cy="3.5" r="0.4" style="fill:white" /><circle cx="3.5" cy="3.5" r="0.4" style="fill:white" /><circle cx="4.5" cy="3.5" r="0.4" style="fill:white" /><circle cx="5.5" cy="3.5" r="0.4" style="fill:white" /><circle cx="6.5" cy="3.5" r="0.4" style="fill:white" /><circle cx="7.5" cy="3.5" r="0.4" style="fill:white" /><circle cx="8.5" cy="3.5" r="0.4" style="fill:white" /><circle cx="1.5" cy="4.5" r="0.4" style="fill:white" /><circle cx="2.5" cy="4.5" r="0.4" style="fill:white" /><circle cx="3.5" cy="4.5" r="0.4" style="fill:white" /><circle cx="4.5" cy="4.5" r="0.4" style="fill:white" /><circle cx="5.5" cy="4.5" r="0.4" style="fill:white" /><circle cx="6.5" cy="4.5" r="0.4" style="fill:white" /><circle cx="7.5" cy="4.5" r="0.4" style="fill:white" /><circle cx="8.5" cy="4.5" r="0.4" style="fill:white" /><circle cx="1.5" cy="5.5" r="0.4" style="fill:white" /><circle cx="2.5" cy="5.5" r="0.4" style="fill:white" /><circle cx="3.5" cy="5.5" r="0.4" style="fill:white" /><circle cx="4.5" cy="5.5" r="0.4" style="fill:white" /><circle cx="5.5" cy="5.5" r="0.4" style="fill:white" /><circle cx="6.5" cy="5.5" r="0.4" style="fill:white" /><circle cx="7.5" cy="5.5" r="0.4" style="fill:white" /><circle cx="8.5" cy="5.5" r="0.4" style="fill:white" /><circle cx="1.5" cy="6.5" r="0.4" style="fill:white" /><circle cx="2.5" cy="6.5" r="0.4" style="fill:white" /><circle cx="3.5" cy="6.5" r="0.4" style="fill:white" /><circle cx="4.5" cy="6.5" r="0.4" style="fill:white" /><circle cx="5.5" cy="6.5" r="0.4" style="fill:white" /><circle cx="6.5" cy="6.5" r="0.4" style="fill:white" /><circle cx="7.5" cy="6.5" r="0.4" style="fill:white" /><circle cx="8.5" cy="6.5" r="0.4" style="fill:white" /><circle cx="1.5" cy="7.5" r="0.4" style="fill:white" /><circle cx="2.5" cy="7.5" r="0.4" style="fill:white" /><circle cx="3.5" cy="7.5" r="0.4" style="fill:white" /><circle cx="4.5" cy="7.5" r="0.4" style="fill:white" /><circle cx="5.5" cy="7.5" r="0.4" style="fill:white" /><circle cx="6.5" cy="7.5" r="0.4" style="fill:white" /><circle cx="7.5" cy="7.5" r="0.4" style="fill:white" /><circle cx="8.5" cy="7.5" r="0.4" style="fill:white" /><circle cx="1.5" cy="8.5" r="0.4" style="fill:white" /><circle cx="2.5" cy="8.5" r="0.4" style="fill:white" /><circle cx="3.5" cy="8.5" r="0.4" style="fill:white" /><circle cx="4.5" cy="8.5" r="0.4" style="fill:white" /><circle cx="5.5" cy="8.5" r="0.4" style="fill:white" /><circle cx="6.5" cy="8.5" r="0.4" style="fill:white" /><circle cx="7.5" cy="8.5" r="0.4" style="fill:white" /><circle cx="8.5" cy="8.5" r="0.4" style="fill:white" /><text x="1.5" y="1.6" text-anchor="middle" style="font-family:Verdana;font-size:0.3px;fill:red">63</text><text x="2.5" y="1.6" text-anchor="middle" style="font-family:Verdana;font-size:0.3px;fill:red">62</text><text x="3.5" y="1.6" text-anchor="middle" style="font-family:Verdana;font-size:0.3px;fill:red">61</text><text x="4.5" y="1.6" text-anchor="middle" style="font-family:Verdana;font-size:0.3px;fill:red">60</text><text x="5.5" y="1.6" text-anchor="middle" style="font-family:Verdana;font-size:0.3px;fill:red">59</text><text x="6.5" y="1.6" text-anchor="middle" style="font-family:Verdana;font-size:0.3px;fill:red">58</text><text x="7.5" y="1.6" text-anchor="middle" style="font-family:Verdana;font-size:0.3px;fill:red">57</text><text x="8.5" y="1.6" text-anchor="middle" style="font-family:Verdana;font-size:0.3px;fill:red">56</text><text x="1.5" y="2.6" text-anchor="middle" style="font-family:Verdana;font-size:0.3px;fill:red">55</text><text x="2.5" y="2.6" text-anchor="middle" style="font-family:Verdana;font-size:0.3px;fill:red">54</text><text x="3.5" y="2.6" text-anchor="middle" style="font-family:Verdana;font-size:0.3px;fill:red">53</text><text x="4.5" y="2.6" text-anchor="middle" style="font-family:Verdana;font-size:0.3px;fill:red">52</text><text x="5.5" y="2.6" text-anchor="middle" style="font-family:Verdana;font-size:0.3px;fill:red">51</text><text x="6.5" y="2.6" text-anchor="middle" style="font-family:Verdana;font-size:0.3px;fill:red">50</text><text x="7.5" y="2.6" text-anchor="middle" style="font-family:Verdana;font-size:0.3px;fill:red">49</text><text x="8.5" y="2.6" text-anchor="middle" style="font-family:Verdana;font-size:0.3px;fill:red">48</text><text x="1.5" y="3.6" text-anchor="middle" style="font-family:Verdana;font-size:0.3px;fill:red">47</text><text x="2.5" y="3.6" text-anchor="middle" style="font-family:Verdana;font-size:0.3px;fill:red">46</text><text x="3.5" y="3.6" text-anchor="middle" style="font-family:Verdana;font-size:0.3px;fill:red">45</text><text x="4.5" y="3.6" text-anchor="middle" style="font-family:Verdana;font-size:0.3px;fill:red">44</text><text x="5.5" y="3.6" text-anchor="middle" style="font-family:Verdana;font-size:0.3px;fill:red">43</text><text x="6.5" y="3.6" text-anchor="middle" style="font-family:Verdana;font-size:0.3px;fill:red">42</text><text x="7.5" y="3.6" text-anchor="middle" style="font-family:Verdana;font-size:0.3px;fill:red">41</text><text x="8.5" y="3.6" text-anchor="middle" style="font-family:Verdana;font-size:0.3px;fill:red">40</text><text x="1.5" y="4.6" text-anchor="middle" style="font-family:Verdana;font-size:0.3px;fill:red">39</text><text x="2.5" y="4.6" text-anchor="middle" style="font-family:Verdana;font-size:0.3px;fill:red">38</text><text x="3.5" y="4.6" text-anchor="middle" style="font-family:Verdana;font-size:0.3px;fill:red">37</text><text x="4.5" y="4.6" text-anchor="middle" style="font-family:Verdana;font-size:0.3px;fill:red">36</text><text x="5.5" y="4.6" text-anchor="middle" style="font-family:Verdana;font-size:0.3px;fill:red">35</text><text x="6.5" y="4.6" text-anchor="middle" style="font-family:Verdana;font-size:0.3px;fill:red">34</text><text x="7.5" y="4.6" text-anchor="middle" style="font-family:Verdana;font-size:0.3px;fill:red">33</text><text x="8.5" y="4.6" text-anchor="middle" style="font-family:Verdana;font-size:0.3px;fill:red">32</text><text x="1.5" y="5.6" text-anchor="middle" style="font-family:Verdana;font-size:0.3px;fill:red">31</text><text x="2.5" y="5.6" text-anchor="middle" style="font-family:Verdana;font-size:0.3px;fill:red">30</text><text x="3.5" y="5.6" text-anchor="middle" style="font-family:Verdana;font-size:0.3px;fill:red">29</text><text x="4.5" y="5.6" text-anchor="middle" style="font-family:Verdana;font-size:0.3px;fill:red">28</text><text x="5.5" y="5.6" text-anchor="middle" style="font-family:Verdana;font-size:0.3px;fill:red">27</text><text x="6.5" y="5.6" text-anchor="middle" style="font-family:Verdana;font-size:0.3px;fill:red">26</text><text x="7.5" y="5.6" text-anchor="middle" style="font-family:Verdana;font-size:0.3px;fill:red">25</text><text x="8.5" y="5.6" text-anchor="middle" style="font-family:Verdana;font-size:0.3px;fill:red">24</text><text x="1.5" y="6.6" text-anchor="middle" style="font-family:Verdana;font-size:0.3px;fill:red">23</text><text x="2.5" y="6.6" text-anchor="middle" style="font-family:Verdana;font-size:0.3px;fill:red">22</text><text x="3.5" y="6.6" text-anchor="middle" style="font-family:Verdana;font-size:0.3px;fill:red">21</text><text x="4.5" y="6.6" text-anchor="middle" style="font-family:Verdana;font-size:0.3px;fill:red">20</text><text x="5.5" y="6.6" text-anchor="middle" style="font-family:Verdana;font-size:0.3px;fill:red">19</text><text x="6.5" y="6.6" text-anchor="middle" style="font-family:Verdana;font-size:0.3px;fill:red">18</text><text x="7.5" y="6.6" text-anchor="middle" style="font-family:Verdana;font-size:0.3px;fill:red">17</text><text x="8.5" y="6.6" text-anchor="middle" style="font-family:Verdana;font-size:0.3px;fill:red">16</text><text x="1.5" y="7.6" text-anchor="middle" style="font-family:Verdana;font-size:0.3px;fill:red">15</text><text x="2.5" y="7.6" text-anchor="middle" style="font-family:Verdana;font-size:0.3px;fill:red">14</text><text x="3.5" y="7.6" text-anchor="middle" style="font-family:Verdana;font-size:0.3px;fill:red">13</text><text x="4.5" y="7.6" text-anchor="middle" style="font-family:Verdana;font-size:0.3px;fill:red">12</text><text x="5.5" y="7.6" text-anchor="middle" style="font-family:Verdana;font-size:0.3px;fill:red">11</text><text x="6.5" y="7.6" text-anchor="middle" style="font-family:Verdana;font-size:0.3px;fill:red">10</text><text x="7.5" y="7.6" text-anchor="middle" style="font-family:Verdana;font-size:0.3px;fill:red">9</text><text x="8.5" y="7.6" text-anchor="middle" style="font-family:Verdana;font-size:0.3px;fill:red">8</text><text x="1.5" y="8.6" text-anchor="middle" style="font-family:Verdana;font-size:0.3px;fill:red">7</text><text x="2.5" y="8.6" text-anchor="middle" style="font-family:Verdana;font-size:0.3px;fill:red">6</text><text x="3.5" y="8.6" text-anchor="middle" style="font-family:Verdana;font-size:0.3px;fill:red">5</text><text x="4.5" y="8.6" text-anchor="middle" style="font-family:Verdana;font-size:0.3px;fill:red">4</text><text x="5.5" y="8.6" text-anchor="middle" style="font-family:Verdana;font-size:0.3px;fill:red">3</text><text x="6.5" y="8.6" text-anchor="middle" style="font-family:Verdana;font-size:0.3px;fill:red">2</text><text x="7.5" y="8.6" text-anchor="middle" style="font-family:Verdana;font-size:0.3px;fill:red">1</text><text x="8.5" y="8.6" text-anchor="middle" style="font-family:Verdana;font-size:0.3px;fill:red">0</text><text x="5" y="9.6" text-anchor="middle" style="font-family:Verdana;font-size:0.5px;fill:black">Othello full board</text></svg>